<svg xmlns="http://www.w3.org/2000/svg" width="68" height="16" viewBox="0 0 68 16">
    <g fill="none" fill-rule="evenodd">
        <path fill="#000" fill-rule="nonzero" d="M35.526 7.794a2.286 2.286 0 1 0-2.286 2.286 2.177 2.177 0 0 0 2.286-2.286m-6.806 0c0-2.4 1.891-4.251 4.526-4.251 2.634 0 4.52 1.851 4.52 4.251 0 2.4-1.875 4.246-4.52 4.246-2.646 0-4.526-1.851-4.526-4.246M25.143 8.229c0 .994-1 1.788-2.286 1.788a2.137 2.137 0 0 1-2.343-2.286c0-1.314.96-2.217 2.435-2.217 1.142 0 2.188.829 2.188 1.76l.006.955zm.091-4.686v.948a3.64 3.64 0 0 0-2.72-.948 4.229 4.229 0 0 0 .08 8.457c.966.056 1.91-.3 2.6-.977v.823c0 1.097-.943 1.908-2.188 1.908a3.429 3.429 0 0 1-2.629-.965l-1.457 1.405a5.583 5.583 0 0 0 4.131 1.629c2.555 0 4.309-1.714 4.309-4v-8.28h-2.126z"/>
        <path fill="#231F20" fill-rule="nonzero" d="M41.211 11.017h-.034v.789H39.11V.737h2.234v3.669h.034A3.846 3.846 0 0 1 44 3.543a4.246 4.246 0 1 1-.063 8.491 3.509 3.509 0 0 1-2.726-1.017zm4.806-3.228a2.217 2.217 0 0 0-2.388-2.286c-1.24 0-2.286.788-2.286 1.743v1.017c0 .983 1.017 1.771 2.286 1.771 1.451.012 2.388-.891 2.388-2.245zM49.143 7.789c0-2.4 1.891-4.246 4.52-4.246 2.628 0 4.52 1.846 4.52 4.246 0 2.4-1.874 4.245-4.52 4.245-2.646 0-4.52-1.851-4.52-4.245zm6.8 0a2.286 2.286 0 1 0-2.286 2.285 2.171 2.171 0 0 0 2.274-2.285h.012z"/>
        <path fill="#231F20" fill-rule="nonzero" d="M61.286 7.743l-3.4-4h2.811l2.023 2.594h.034l2.052-2.594h2.817l-3.429 4 3.497 4.063h-2.817l-2.143-2.703h-.034l-2.114 2.703H57.77z"/>
        <circle cx="7.423" cy="8.6" r="7.143" fill="#00AA13" fill-rule="nonzero"/>
        <path fill="#FFF" fill-rule="nonzero" d="M10.971 11.24a.983.983 0 0 1-1.96.04.983.983 0 0 1 1.96-.12.349.349 0 0 1 0 .08zM5.869 11.24a.971.971 0 0 1-.978.954.983.983 0 0 1-.982-.983.349.349 0 0 1 0-.08.983.983 0 0 1 1.96.08v.029z"/>
        <path fill="#FFF" fill-rule="nonzero" d="M12.057 8.366l-.794-1.417a1.886 1.886 0 0 0-1.594-.972h-.64v-.263a.571.571 0 0 0-.515-.543 17.714 17.714 0 0 0-5.023-.028.743.743 0 0 0-.571.6 14.994 14.994 0 0 0 0 4.794c.06.287.284.512.571.572a1.457 1.457 0 0 1 2.909.131v.057h2.166v-.057a1.458 1.458 0 0 1 2.914-.109.726.726 0 0 0 .571-.702c.052-.572.149-1.378.138-1.715a.669.669 0 0 0-.132-.348zm-1.2.131L9.03 8.47V6.754h.651c.4-.003.768.218.954.572l.44.805a.251.251 0 0 1-.217.366z"/>
        <path d="M0 0h68v16H0z"/>
    </g>
</svg>
