<svg xmlns="http://www.w3.org/2000/svg" width="68" height="16" viewBox="0 0 68 16">
    <g fill="none" fill-rule="nonzero">
        <path fill="#00AA13" d="M5.01 8.005a2.995 2.995 0 0 1 3-2.99c1.658 0 3 1.339 3 2.99a2.995 2.995 0 0 1-3 2.989c-1.657 0-3-1.338-3-2.99"/>
        <path fill="#00AA13" d="M8.01.035c-4.419 0-8 3.568-8 7.97 0 3.304 2.003 6.125 4.91 7.352a1.499 1.499 0 0 0 2.05-1.084 1.493 1.493 0 0 0-.89-1.672V12.6a4.981 4.981 0 0 1-3.07-4.595c0-2.751 2.238-4.982 5-4.982 2.763 0 5.001 2.23 5.001 4.982a4.981 4.981 0 0 1-3.07 4.595 1.493 1.493 0 0 0 .578 2.873c.2-.002.396-.041.58-.117 2.908-1.227 4.911-4.048 4.911-7.352 0-4.401-3.582-7.97-8-7.97"/>
        <path fill="#000" d="M39.224 7.12c0-1.441-.993-2.513-2.54-2.513-1.549 0-2.541 1.072-2.541 2.514 0 1.44.992 2.514 2.54 2.514s2.54-1.073 2.54-2.514m-7.57 0c0-2.648 2.103-4.693 5.03-4.693 2.944 0 5.03 2.045 5.03 4.693 0 2.648-2.086 4.693-5.03 4.693-2.927 0-5.03-2.045-5.03-4.693M40.859 13.731h1.345c.724 0 .976-.268.976-.905V2.431h2.49V12.86c0 2.195-.891 3.134-3.263 3.134h-1.548V13.73zM27.661 7.606c0 1.097-1.117 1.974-2.54 1.974-1.608 0-2.607-.945-2.607-2.514 0-1.45 1.067-2.445 2.709-2.445 1.304 0 2.438.91 2.438 1.94v1.045zm.102-5.18v1.047h-.034c-.644-.674-1.71-1.046-2.98-1.046-2.726 0-4.741 2.025-4.741 4.639 0 2.716 2.066 4.706 4.826 4.706 1.235 0 2.268-.388 2.895-1.08h.034v.904c0 1.214-1.05 2.108-2.439 2.108-1.4 0-2.214-.393-2.922-1.067l-1.62 1.555c1.085 1.148 2.723 1.801 4.594 1.801 2.844 0 4.791-1.901 4.791-4.43V2.425h-2.404zM52.033 4.44c1.329 0 2.254.686 2.372 1.726h-4.778c.135-1.04 1.06-1.727 2.406-1.727m.257 5.363c-1.492 0-2.665-.961-2.696-1.894h7.234v-.703c0-2.665-1.85-4.777-4.846-4.777-2.826 0-4.845 1.978-4.845 4.71 0 2.816 2.13 4.676 5.26 4.676 1.918 0 3.293-.916 4.01-1.793l-1.686-1.179c-.751.698-1.432.96-2.43.96M58.295.011h2.403l.013 6.154h.033l4.024-3.758h3.222l-4.17 3.932 4.153 5.467h-2.877l-2.852-3.951h-.033l-1.513 1.428v2.53h-2.403z"/>
    </g>
</svg>
