<svg xmlns="http://www.w3.org/2000/svg" width="55" height="13" viewBox="0 0 55 13">
    <g fill="none" fill-rule="evenodd">
        <path fill="#FFF" fill-rule="nonzero" d="M28.734 6.333a1.853 1.853 0 0 0-1.849-1.857 1.853 1.853 0 0 0-1.848 1.857c0 1.026.827 1.857 1.848 1.857.498.026.983-.162 1.336-.516.352-.354.539-.841.513-1.341m-5.505 0c0-1.95 1.53-3.454 3.66-3.454 2.132 0 3.657 1.504 3.657 3.454 0 1.95-1.516 3.45-3.656 3.45s-3.66-1.505-3.66-3.45M20.336 6.686c0 .808-.809 1.453-1.849 1.453a1.724 1.724 0 0 1-1.378-.485 1.74 1.74 0 0 1-.517-1.372c0-1.068.777-1.802 1.97-1.802.924 0 1.77.674 1.77 1.43l.004.776zm.074-3.807v.77a2.936 2.936 0 0 0-2.2-.77 3.428 3.428 0 0 0-3.388 3.468 3.428 3.428 0 0 0 3.453 3.403 2.766 2.766 0 0 0 2.103-.794v.669c0 .891-.763 1.55-1.77 1.55a2.766 2.766 0 0 1-2.126-.784l-1.18 1.142a4.505 4.505 0 0 0 3.343 1.323c2.066 0 3.484-1.393 3.484-3.25V2.88H20.41zM33.333 8.951h-.028v.641h-1.673V.6h1.807v2.98h.028a3.101 3.101 0 0 1 2.121-.7 3.432 3.432 0 0 1 2.961 1.747 3.463 3.463 0 0 1-.025 3.45 3.431 3.431 0 0 1-2.987 1.702 2.83 2.83 0 0 1-2.204-.827zm3.887-2.623a1.806 1.806 0 0 0-.553-1.362 1.788 1.788 0 0 0-1.38-.495c-1.002 0-1.848.64-1.848 1.416v.827c0 .798.823 1.439 1.849 1.439 1.174.01 1.932-.724 1.932-1.825zM39.748 6.328c0-1.95 1.53-3.45 3.656-3.45 2.126 0 3.656 1.5 3.656 3.45 0 1.95-1.516 3.45-3.656 3.45s-3.656-1.504-3.656-3.45zm5.5 0a1.853 1.853 0 0 0-1.849-1.857 1.853 1.853 0 0 0-1.849 1.857c0 1.026.828 1.857 1.85 1.857.496.025.98-.163 1.33-.517.35-.354.535-.841.509-1.34h.009z"/>
        <path fill="#FFF" fill-rule="nonzero" d="M49.57 6.291l-2.75-3.25h2.273L50.73 5.15h.028l1.66-2.108h2.278l-2.773 3.25 2.828 3.301h-2.278l-1.733-2.196h-.028L49 9.592h-2.274zM6.004 12.791c-3.19 0-5.778-2.598-5.778-5.804 0-3.205 2.587-5.803 5.778-5.803 3.19 0 5.777 2.598 5.777 5.803 0 3.206-2.586 5.804-5.777 5.804zm2.87-3.659a.284.284 0 0 0 0-.064.796.796 0 0 0-.823-.715.797.797 0 0 0-.762.812.796.796 0 0 0 .807.724.797.797 0 0 0 .778-.756zm-4.127 0V9.11a.797.797 0 0 0-.763-.779.796.796 0 0 0-.823.714.284.284 0 0 0 0 .065c0 .441.356.799.795.799a.787.787 0 0 0 .79-.775zm5.005-2.335L9.11 5.646a1.524 1.524 0 0 0-1.29-.79h-.517v-.213a.463.463 0 0 0-.416-.441 14.264 14.264 0 0 0-4.063-.023.602.602 0 0 0-.462.487 12.238 12.238 0 0 0 0 3.895c.048.234.23.416.462.465A1.18 1.18 0 0 1 4.05 7.948c.63.028 1.127.55 1.125 1.184v.047h1.752v-.046a1.183 1.183 0 0 1 1.135-1.229 1.182 1.182 0 0 1 1.222 1.14.589.589 0 0 0 .462-.57c.042-.465.12-1.12.111-1.394a.545.545 0 0 0-.106-.283zm-.97.107l-1.48-.023V5.488h.527a.864.864 0 0 1 .772.464l.356.655a.205.205 0 0 1-.175.297z"/>
        <path d="M0 0h55v13H0z"/>
    </g>
</svg>
