<?xml version="1.0" encoding="UTF-8"?>
<svg width="120px" height="120px" viewBox="0 0 120 120" version="1.1" xmlns="http://www.w3.org/2000/svg" xmlns:xlink="http://www.w3.org/1999/xlink">
    <!-- Generator: Sketch 52.4 (67378) - http://www.bohemiancoding.com/sketch -->
    <title>new</title>
    <desc>Created with Sketch.</desc>
    <g id="Desktop-Phase-2" stroke="none" stroke-width="1" fill="none" fill-rule="evenodd">
        <g id="logos-(4)-01" transform="translate(0.000000, -196.000000)">
            <g id="new" transform="translate(0.000000, 196.000000)">
                <path d="M34.1,0 L85.9,0 C97.76,0 102.06,1.23 106.39,3.55 C110.676665,5.81811858 114.181881,9.32333541 116.45,13.61 C118.77,17.94 120,22.24 120,34.1 L120,85.9 C120,97.76 118.77,102.06 116.45,106.39 C114.181881,110.676665 110.676665,114.181881 106.39,116.45 C102.06,118.77 97.76,120 85.9,120 L34.1,120 C22.24,120 17.94,118.77 13.61,116.45 C9.32333541,114.181881 5.81811858,110.676665 3.55,106.39 C1.23,102.06 0,97.76 0,85.9 L0,34.1 C0,22.24 1.23,17.94 3.55,13.61 C5.81811858,9.32333541 9.32333541,5.81811858 13.61,3.55 C17.94,1.23 22.24,0 34.1,0 Z" id="Path"></path>
                <path d="M30.75,52.89 C30.6363547,52.9501419 30.50834,52.9778208 30.38,52.97 L30.28,52.97 L27.28,52.8 C26.0666667,52.7333333 24.7333333,52.7 23.28,52.7 C22.6562386,52.6919945 22.0351655,52.7831302 21.44,52.97 C20.8968233,53.1456339 20.4124675,53.4673846 20.04,53.9 C19.6171,54.4161909 19.3162788,55.0212517 19.16,55.67 C18.9396991,56.5763117 18.8388443,57.5075378 18.86,58.44 L18.86,62.66 C18.832029,63.6288078 18.9500169,64.5963086 19.21,65.53 C19.3911041,66.1722036 19.7006886,66.7709604 20.12,67.29 C20.4452768,67.6866112 20.8696079,67.9901977 21.35,68.17 C21.7600462,68.3217305 22.1928394,68.4028792 22.63,68.41 C23.5566667,68.41 24.4233333,68.3766667 25.23,68.31 L25.23,60.54 C25.2303838,60.3646994 25.2984523,60.1963194 25.42,60.07 C25.5359502,59.938228 25.7045505,59.8649236 25.88,59.87 L30.2,59.87 C30.5733058,59.8753721 30.8746279,60.1766942 30.88,60.55 L30.88,71.9 C30.8937248,72.0937159 30.8296961,72.2849162 30.7020794,72.4313 C30.5744628,72.5776838 30.3937781,72.6671841 30.2,72.68 C29.2733333,72.86 28.2033333,73.0233333 26.99,73.17 C25.5422063,73.3283687 24.0863816,73.4018278 22.63,73.39 C21.9587218,73.3827689 21.2894175,73.3158384 20.63,73.19 C19.8856023,73.0497094 19.1605168,72.8214417 18.47,72.51 C17.7486255,72.1755423 17.0758495,71.7449656 16.47,71.23 C15.7896621,70.6577337 15.202624,69.9829774 14.73,69.23 C14.1866234,68.357687 13.781813,67.4063826 13.53,66.41 C13.2198007,65.1778534 13.0718827,63.9104647 13.09,62.64 L13.09,58.45 C13.027113,56.6331481 13.3368029,54.8226533 14,53.13 C14.5240432,51.8616945 15.3393798,50.7346116 16.38,49.84 C17.3436854,49.0371605 18.474563,48.4597639 19.69,48.15 C20.8853547,47.8399084 22.1150807,47.6819927 23.35,47.68 C24.7953483,47.6642531 26.2397246,47.7612135 27.67,47.97 C28.8633333,48.1633333 29.7766667,48.3266667 30.41,48.46 C30.79,48.5266667 30.98,48.6966667 30.98,48.97 L30.98,52.55 C30.9740035,52.6977762 30.8849331,52.8294456 30.75,52.89 Z" id="Path" fill="#45AB4A"></path>
                <path d="M54.83,62.53 C54.8708185,64.2298826 54.606642,65.9233212 54.05,67.53 C53.6024456,68.7939375 52.8781334,69.941904 51.93,70.89 C51.0328498,71.7555421 49.9480263,72.4023296 48.76,72.78 C46.2129773,73.5685987 43.4870227,73.5685987 40.94,72.78 C39.7519737,72.4023296 38.6671502,71.7555421 37.77,70.89 C36.8218666,69.941904 36.0975544,68.7939375 35.65,67.53 C35.093358,65.9233212 34.8291815,64.2298826 34.87,62.53 L34.87,58.53 C34.8293977,56.8301315 35.0935681,55.1367311 35.65,53.53 C36.0975544,52.2660625 36.8218666,51.118096 37.77,50.17 C38.66737,49.3047456 39.7521222,48.6580006 40.94,48.28 C43.4872112,47.4926482 46.2127888,47.4926482 48.76,48.28 C49.9478778,48.6580006 51.03263,49.3047456 51.93,50.17 C52.8781334,51.118096 53.6024456,52.2660625 54.05,53.53 C54.6064319,55.1367311 54.8706023,56.8301315 54.83,58.53 L54.83,62.53 Z M49.05,58.53 C49.1872867,56.9819673 48.8376786,55.4297071 48.05,54.09 C47.2832098,53.1461784 46.1025642,52.6380525 44.89,52.73 C43.682806,52.6360165 42.5072618,53.1451694 41.75,54.09 C40.9685144,55.4321482 40.6193547,56.982417 40.75,58.53 L40.75,62.53 C40.6186992,64.077628 40.9679029,65.6280922 41.75,66.97 C42.5072618,67.9148306 43.682806,68.4239835 44.89,68.33 C46.0802151,68.4125171 47.23749,67.9176053 48,67 C48.7883075,65.6605416 49.1379616,64.1080776 49,62.56 L49.05,58.53 Z" id="Shape" fill="#45AB4A" fill-rule="nonzero"></path>
                <path d="M64.32,76.13 C64.0491631,76.8240085 63.6091637,77.4393201 63.04,77.92 C62.4809683,78.369054 61.8282509,78.6868693 61.13,78.85 C60.3504842,79.0357997 59.5513268,79.1264604 58.75,79.12 C58.37,79.12 58.02,79.12 57.75,79.12 L56.62,79.02 C56.4747158,79.0178805 56.3369448,78.955072 56.2400597,78.8467887 C56.1431747,78.7385053 56.0960134,78.5946249 56.11,78.45 L56.11,75 C56.1105009,74.8857206 56.1453416,74.7742302 56.21,74.68 C56.2669104,74.5855318 56.3697253,74.5284125 56.48,74.53 L58.17,74.53 C58.55,74.53 58.79,74.43 58.9,74.24 C59.0194458,73.9452652 59.0707236,73.6273428 59.05,73.31 L59.05,48.62 C59.0463009,48.444819 59.1193638,48.2767743 59.25,48.16 C59.3763194,48.0384523 59.5446994,47.9703838 59.72,47.97 L64.14,47.97 C64.3153006,47.9703838 64.4836806,48.0384523 64.61,48.16 C64.7406362,48.2767743 64.8136991,48.444819 64.81,48.62 L64.81,73.28 C64.8343817,74.2528856 64.6679129,75.2211229 64.32,76.13 Z" id="Path" fill="#45AB4A"></path>
                <path d="M84.21,72.93 C83.6233333,73.0166667 82.84,73.1133333 81.86,73.22 C80.88,73.3266667 79.4766667,73.3766667 77.65,73.37 C76.6073578,73.3728794 75.5665465,73.2825196 74.54,73.1 C73.6026669,72.9556967 72.7064155,72.6149167 71.91,72.1 C71.1152045,71.5408669 70.4863533,70.777262 70.09,69.89 C69.5940687,68.711123 69.3619789,67.4380426 69.41,66.16 L69.41,54.9 C69.3613318,53.6283926 69.5935046,52.3616852 70.09,51.19 C70.4887131,50.306919 71.1172717,49.547123 71.91,48.99 C72.712532,48.4727293 73.6158076,48.1318706 74.56,47.99 C75.5933227,47.8078202 76.6407437,47.7174676 77.69,47.72 C78.59,47.72 79.3833333,47.7366667 80.07,47.77 C80.7566667,47.8033333 81.36,47.8433333 81.88,47.89 L83.21,48.02 L84.21,48.15 C84.6633333,48.2166667 84.89,48.4433333 84.89,48.83 L84.89,51.97 C84.879325,52.3393953 84.5795129,52.6347984 84.21,52.64 L77.35,52.64 C76.7508391,52.5804357 76.1519902,52.7561458 75.68,53.13 C75.2927116,53.6492022 75.1175221,54.2963307 75.19,54.94 L75.19,58 L83.94,58 C84.3133058,58.0053721 84.6146279,58.3066942 84.62,58.68 L84.62,61.89 C84.6146279,62.2633058 84.3133058,62.5646279 83.94,62.57 L75.2,62.57 L75.2,66.15 C75.1275221,66.7936693 75.3027116,67.4407978 75.69,67.96 C76.1619902,68.3338542 76.7608391,68.5095643 77.36,68.45 L84.22,68.45 C84.5933058,68.4553721 84.8946279,68.7566942 84.9,69.13 L84.9,72.27 C84.8933333,72.6433333 84.6633333,72.8633333 84.21,72.93 Z" id="Path" fill="#45AB4A"></path>
                <path d="M108.77,48.35 C108.757281,48.5192438 108.698492,48.6817804 108.6,48.82 L100.6,60.24 L108.67,72.37 C108.754255,72.4749023 108.800123,72.6054514 108.8,72.74 C108.8,72.97 108.64,73.08 108.33,73.08 L102.52,73.08 C102.355898,73.0946996 102.192134,73.0484183 102.06,72.95 C101.949041,72.8496808 101.851561,72.7353943 101.77,72.61 L94.91,61.46 L94.91,72.4 C94.899325,72.7693953 94.5995129,73.0647984 94.23,73.07 L89.81,73.07 C89.4404871,73.0647984 89.140675,72.7693953 89.13,72.4 L89.13,48.62 C89.1263009,48.444819 89.1993638,48.2767743 89.33,48.16 C89.4563194,48.0384523 89.6246994,47.9703838 89.8,47.97 L94.22,47.97 C94.3953006,47.9703838 94.5636806,48.0384523 94.69,48.16 C94.821772,48.2759502 94.8950764,48.4445505 94.89,48.62 L94.89,59.36 L102.32,48.36 C102.468319,48.0934204 102.755337,47.9343968 103.06,47.95 L108.23,47.95 C108.59,48 108.77,48.1 108.77,48.35 Z" id="Path" fill="#45AB4A"></path>
            </g>
        </g>
    </g>
</svg>